# xmcd
#
# Track frame offsets: 
#        150
#        450
#        17568
#        33108
#        48287
#        65112
#        83880
#        98000
#        115916
#        144102
#
# Disc length: 2189 seconds
#
# Revision: 0
# Processed by: cddbd v1.5.2PL0 Copyright (c) Steve Scherf et al.
# Submitted via: ExactAudioCopy v1.3
#
DISCID=6e088b0a
DTITLE=The Blues Overdrive - Clinch!
DYEAR=2015
DGENRE=Blues
TTITLE0=Pistol Blues
TTITLE1=Rolling Thunder
TTITLE2=Three Time Lover
TTITLE3=Woman of Love
TTITLE4=Daughter of the Devil
TTITLE5=Jealous
TTITLE6=Cherry
TTITLE7=Lay Your Burdon Down
TTITLE8=Living Here Without You
TTITLE9=Aurora
EXTD=
EXTT0=
EXTT1=
EXTT2=
EXTT3=
EXTT4=
EXTT5=
EXTT6=
EXTT7=
EXTT8=
EXTT9=
PLAYORDER=
